#!OML:ASF E:/inclinewalkrobotboard/Project1/Captureday1/Session1/subject1.ASF
:FULLY-SPECIFIED
:DEGREES
63
root 0 0 0 1.4263844518604474 -3.5379414580359336 1.8913641385028221
lowerback 11.966825624882233 0.8923577628557476 -0.09933287984779848
upperback -4.433720558922566 1.1183922280844212 -0.6290990549019232
thorax -11.553446969381481 0.513735087370105 -0.8675025836000881
lowerneck -6.096787182113704 1.6525630199663934 4.622978968334194
upperneck 18.447450143708352 3.1564028330191465 -8.268635349854758
head 6.7798033834802425 1.1632494965577025 -3.188668493209579
rclavicle -1.7495405307583412E-16 -9.706971257330264E-16
rhumerus 22.214205971913003 15.94230211521438 -46.549108881940434
rradius 74.30210871132493
rwrist 27.886745934132417
rhand -34.85230650661204 -59.743185246630404
rfingers 7.12502
rthumb -8.012289767222658 -89.55580741533007
lclavicle -1.7319996344055752E-16 -9.483422318072278E-16
lhumerus 22.789992453164107 -12.794614067946872 43.63451259897205
lradius 71.31796414690773
lwrist -23.63469553116864
lhand -45.335436300692464 -73.18882960441935
lfingers 7.12502
lthumb -18.09243663537994 -43.97216401871607
rfemur -25.581551851527742 -2.144047140648521 16.702684491008416
rtibia 54.67469664204563
rfoot -27.298930491187242 -16.453954428499095
rtoes -17.65140700371899
lfemur -21.81630772751194 1.2353921559422694 -18.178261300135624
ltibia 48.66065529041153
lfoot -23.743793219735352 -3.6055787380216717
ltoes -15.432805726141224
64
root 0 0 0 1.4268116311673524 -3.5392903198123324 1.8899945133012357
lowerback 11.96701882846453 0.8931588219102482 -0.09748729774950693
upperback -4.434345643122417 1.1196630362974258 -0.6293326436323256
thorax -11.554141437803654 0.5143151789550908 -0.8690103138803896
lowerneck -6.095757356515264 1.6528398570424423 4.623921416669493
upperneck 18.447412950942443 3.156915672577688 -8.269446413604568
head 6.779647373789535 1.1634588362252423 -3.189067080849347
rclavicle -1.7444824295941176E-16 -9.70479098837784E-16
rhumerus 22.223932655291364 15.948216341660872 -46.54293021407943
rradius 74.31048692581737
rwrist 27.891113383219786
rhand -34.855449413745816 -59.75714048744097
rfingers 7.12502
rthumb -8.01537237848245 -89.56964783495303
lclavicle -1.7272995169502504E-16 -9.49001159777161E-16
lhumerus 22.79327707796028 -12.79570201475457 43.631951418663874
lradius 71.32074537803811
lwrist -23.636880930786692
lhand -45.33665153798865 -73.19629330133286
lfingers 7.12502
lthumb -18.093898402454727 -43.978224260439035
rfemur -25.58333642072942 -2.1450487581980537 16.701260961400855
rtibia 54.67714837485936
rfoot -27.301525552295537 -16.454789247789687
rtoes -17.65396581886517
lfemur -21.81212643443524 1.234280586230014 -18.178849747500422
ltibia 48.654897389550236
lfoot -23.73958872000386 -3.6051620110398153
ltoes -15.429151239715008
65
root 0 0 0 1.4270427209623757 -3.5401270996015715 1.8890687707263012
lowerback 11.96709357276399 0.8936459172377589 -0.09633772730630741
upperback -4.434668320823128 1.120432537866414 -0.6294304677072357
thorax -11.5544748257897 0.5146629905117125 -0.8698745389125647
lowerneck -6.095297345002248 1.6529436895838099 4.624375999824098
upperneck 18.447405342910557 3.1571397547101028 -8.269795323765994
head 6.779583681875001 1.1635525263732927 -3.1892499047588716
rclavicle -1.743746343763471E-16 -9.704700319730395E-16
rhumerus 22.22617885229068 15.949667589827447 -46.541533482280784
rradius 74.31257418808696
rwrist 27.89214191303475
rhand -34.85616910830676 -59.7606322355642
rfingers 7.12502
rthumb -8.016091309146702 -89.57315676457092
lclavicle -1.727439944226613E-16 -9.489817378095042E-16
lhumerus 22.792683793606866 -12.795532886555785 43.63240457401385
lradius 71.32026187521959
lwrist -23.63653606381734
lhand -45.3364254590646 -73.19521921005105
lfingers 7.12502
lthumb -18.093671916939368 -43.9771441941315
rfemur -25.588655064209664 -2.1475810288294763 16.697481994200633
rtibia 54.68295627196295
rfoot -27.308307721269067 -16.458481039856267
rtoes -17.661572351709214
lfemur -21.807862632848718 1.2331432982715345 -18.179587680401156
ltibia 48.648460549065256
lfoot -23.73481806760323 -3.6046110062752432
ltoes -15.425156221408955
66
root 0 0 0 1.4271635478169498 -3.540151182889687 1.8892090041236427
lowerback 11.967129333504722 0.8936580577402811 -0.09639701805514655
upperback -4.4348148306148865 1.1204329786328866 -0.6295030254878925
thorax -11.554661848629173 0.5146654199186944 -0.8699200798067058
lowerneck -6.09499273992444 1.6530825875888373 4.6245683794143035
upperneck 18.447365828583706 3.157350032890933 -8.270054099578282
head 6.77951543341284 1.1636405860497345 -3.1893375800915185
rclavicle -1.743375889471765E-16 -9.70459045815262E-16
rhumerus 22.227171470384107 15.9503102557185 -46.54094654016555
rradius 74.31350452452628
rwrist 27.89259252405863
rhand -34.85650057329133 -59.762208398159416
rfingers 7.12502
rthumb -8.01641912070304 -89.57470562690396
lclavicle -1.7277162206921657E-16 -9.49010626461939E-16
lhumerus 22.791632885450024 -12.795265459287174 43.633129413966735
lradius 71.31943419665686
lwrist -23.635986151760875
lhand -45.33607166702396 -73.19338857338045
lfingers 7.12502
lthumb -18.093346293768512 -43.975406201553454
rfemur -25.59437893858029 -2.150303894462021 16.693439139214476
rtibia 54.68929565679685
rfoot -27.315369739734464 -16.462334082929566
rtoes -17.669656826445397
lfemur -21.801635539098985 1.2315765464601474 -18.18076275312073
ltibia 48.63962233279854
lfoot -23.72805847815863 -3.6040854057994487
ltoes -15.419857052944032
